<?xml version="1.0" encoding="UTF-8"?> <svg xmlns="http://www.w3.org/2000/svg" width="274" height="50" viewBox="0 0 274 50" fill="none"><g clip-path="url(#clip0_953_1998)"><path d="M64.791 33.9618L58.956 24.1714H54.3116V33.9618H53.3085V13.2559H59.0171C63.0946 13.2559 65.6676 14.7604 65.6676 18.5893C65.6676 21.8819 63.535 23.7963 60.0811 24.1103L65.9815 33.9618H64.791ZM58.642 23.2948C62.471 23.2948 64.6035 21.7903 64.6035 18.5893C64.6035 15.3884 62.471 14.1324 58.642 14.1324H54.3116V23.2948H58.642Z" fill="#1A1A18"></path><path d="M75.2399 18.5893C78.6894 18.5893 80.8873 21.0358 80.8873 25.4927C80.8873 25.8067 80.8873 26.1207 80.8263 26.4958H69.7843C69.7843 30.5122 72.1043 33.4602 75.6847 33.4602C77.3811 33.4602 78.6981 32.8977 79.8276 32.0778L80.2681 32.8933C79.1386 33.5824 77.8826 34.3368 75.6237 34.3368C71.8601 34.3368 68.7856 31.3888 68.7856 26.4914C68.7856 21.594 71.9212 18.585 75.2486 18.585L75.2399 18.5893ZM79.9454 25.6803C79.9454 21.5373 78.0614 19.4659 75.2399 19.4659C72.4183 19.4659 70.0939 21.8513 69.7799 25.6803H79.9454Z" fill="#1A1A18"></path><path d="M90.4902 18.5894C92.5617 18.5894 93.8787 19.5313 94.8817 20.4733L94.2537 21.1623C93.2507 20.2204 92.0558 19.4703 90.4902 19.4703C87.2893 19.4703 84.7817 22.3572 84.7817 26.5002C84.7817 30.6431 87.0407 33.4646 90.4902 33.4646C92.1866 33.4646 93.6258 32.6491 94.6942 31.6461L95.2568 32.3351C94.0008 33.4646 92.4308 34.3412 90.4859 34.3412C86.6569 34.3412 83.77 31.4542 83.77 26.4958C83.77 21.5374 86.9055 18.5894 90.4859 18.5894H90.4902Z" fill="#1A1A18"></path><path d="M98.5231 39.9886C100.407 39.9886 101.724 38.1701 102.54 35.7236L102.98 34.3412L96.7657 18.9688H97.8341L101.663 28.8202C102.165 30.0761 102.793 31.7072 103.355 33.0242H103.482C103.983 31.7072 104.485 30.0761 104.925 28.8202L108.314 18.9688H109.317L103.294 36.0987C102.54 38.4187 101.035 40.9306 98.4621 40.9306C97.9606 40.9306 97.3936 40.8041 97.0186 40.6166L97.2715 39.7401C97.5855 39.8665 98.087 39.993 98.5275 39.993L98.5231 39.9886Z" fill="#1A1A18"></path><path d="M118.1 18.5894C120.171 18.5894 121.488 19.5313 122.491 20.4733L121.863 21.1623C120.86 20.2204 119.665 19.4703 118.1 19.4703C114.899 19.4703 112.391 22.3572 112.391 26.5002C112.391 30.6431 114.65 33.4646 118.1 33.4646C119.796 33.4646 121.235 32.6491 122.304 31.6461L122.866 32.3351C121.61 33.4646 120.04 34.3412 118.095 34.3412C114.266 34.3412 111.379 31.4542 111.379 26.4958C111.379 21.5374 114.515 18.5894 118.095 18.5894H118.1Z" fill="#1A1A18"></path><path d="M126.699 11.3108H127.641V32.5182C127.641 33.1462 127.894 33.4602 128.269 33.4602C128.396 33.4602 128.522 33.4602 128.832 33.3991L129.019 34.2146C128.766 34.2757 128.579 34.3411 128.204 34.3411C127.262 34.3411 126.699 33.7785 126.699 32.3351V11.3108Z" fill="#1A1A18"></path><path d="M133.35 14.0714C133.35 13.3823 133.851 13.0029 134.418 13.0029C134.985 13.0029 135.487 13.378 135.487 14.0714C135.487 14.6993 134.985 15.1398 134.418 15.1398C133.851 15.1398 133.35 14.6993 133.35 14.0714ZM133.917 18.9644H134.859V33.9618H133.917V18.9644Z" fill="#1A1A18"></path><path d="M140.881 18.9644H141.697L141.823 21.3499H141.884C143.454 19.7799 145.02 18.5894 147.091 18.5894C150.166 18.5894 151.609 20.4079 151.609 24.2979V33.9618H150.667V24.4243C150.667 21.0969 149.599 19.4659 147.026 19.4659C145.142 19.4659 143.764 20.4689 141.819 22.4793V33.9618H140.877V18.9644H140.881Z" fill="#1A1A18"></path><path d="M158.325 33.3992V33.2727C157.571 32.8323 157.008 32.0168 157.008 30.8873C157.008 29.5048 158.011 28.5672 158.639 28.1268V28.0003C157.697 27.1848 156.755 25.6803 156.755 23.8574C156.755 20.8439 159.014 18.585 161.901 18.585C162.717 18.585 163.406 18.7725 163.846 18.96H168.866V19.8366H165.224C166.293 20.7131 167.043 22.1566 167.043 23.853C167.043 26.8665 164.784 29.1865 161.897 29.1865C161.02 29.1865 160.013 28.9336 159.324 28.4975C158.635 29.06 158.007 29.7534 158.007 30.8175C158.007 31.947 158.635 32.889 160.955 32.889H164.282C167.61 32.889 169.114 33.9574 169.114 36.2774C169.114 38.785 166.415 41.2969 162.211 41.2969C158.382 41.2969 156.062 39.6049 156.062 37.0929C156.062 35.7759 156.938 34.3935 158.321 33.3905L158.325 33.3992ZM162.281 40.4247C165.857 40.4247 168.116 38.3533 168.116 36.3472C168.116 34.5897 166.86 33.9007 164.474 33.9007H161.025C160.837 33.9007 160.022 33.8396 159.206 33.6478C157.702 34.6508 157.074 35.9068 157.074 37.0362C157.074 39.0423 158.958 40.4247 162.281 40.4247ZM166.044 23.8617C166.044 21.1928 164.16 19.4702 161.901 19.4702C159.642 19.4702 157.758 21.1623 157.758 23.8617C157.758 26.5612 159.703 28.3187 161.901 28.3187C164.099 28.3187 166.044 26.5001 166.044 23.8617Z" fill="#1A1A18"></path><path d="M173.876 13.3823H176.981L180.967 24.4287L182.441 28.6326H182.568L184.011 24.4287L187.962 13.3823H191.037V33.9661H188.56V22.6407C188.56 20.8221 188.778 18.3756 188.904 16.5528H188.778L187.147 21.1318L183.196 31.8947H181.691L177.736 21.1318L176.105 16.5528H175.978C176.105 18.3713 176.292 20.8178 176.292 22.6407V33.9661H173.876V13.3823Z" fill="#1A1A18"></path><path d="M202.306 18.3364C206.039 18.3364 209.366 21.2539 209.366 26.3693C209.366 31.4848 206.039 34.3368 202.306 34.3368C198.573 34.3368 195.245 31.4193 195.245 26.3693C195.245 21.3193 198.568 18.3364 202.306 18.3364ZM202.306 32.2043C204.94 32.2043 206.697 29.8494 206.697 26.3693C206.697 22.8893 204.94 20.4689 202.306 20.4689C199.672 20.4689 197.914 22.8544 197.914 26.3693C197.914 29.8843 199.702 32.2043 202.306 32.2043Z" fill="#1A1A18"></path><path d="M213.378 18.7159H215.511L215.729 20.9138H215.82C217.264 19.4703 218.834 18.3408 220.936 18.3408C224.137 18.3408 225.58 20.4123 225.58 24.3023V33.9662H223.007V24.6468C223.007 21.7904 222.126 20.5693 220.12 20.5693C218.55 20.5693 217.486 21.3848 215.947 22.9242V33.9662H213.374V18.7159H213.378Z" fill="#1A1A18"></path><path d="M230.072 13.9142C230.072 12.9112 230.857 12.2527 231.86 12.2527C232.863 12.2527 233.648 12.9112 233.648 13.9142C233.648 14.9172 232.863 15.5757 231.86 15.5757C230.857 15.5757 230.072 14.8867 230.072 13.9142ZM230.543 18.7156H233.116V33.966H230.543V18.7156Z" fill="#1A1A18"></path><path d="M238.702 20.8177H236.443V18.8727L238.829 18.7157L239.143 14.4507H241.306V18.7157H245.414V20.8177H241.306V29.2911C241.306 31.175 241.903 32.2391 243.661 32.2391C244.193 32.2391 244.882 32.021 245.388 31.8292L245.889 33.7742C245.043 34.0576 244.005 34.3367 243.068 34.3367C239.806 34.3367 238.707 32.2653 238.707 29.2518V20.8133L238.702 20.8177Z" fill="#1A1A18"></path><path d="M254.515 18.3364C258.248 18.3364 261.576 21.2539 261.576 26.3693C261.576 31.4848 258.248 34.3368 254.515 34.3368C250.782 34.3368 247.455 31.4193 247.455 26.3693C247.455 21.3193 250.778 18.3364 254.515 18.3364ZM254.515 32.2043C257.149 32.2043 258.907 29.8494 258.907 26.3693C258.907 22.8893 257.149 20.4689 254.515 20.4689C251.881 20.4689 250.124 22.8544 250.124 26.3693C250.124 29.8843 251.912 32.2043 254.515 32.2043Z" fill="#1A1A18"></path><path d="M265.592 18.7158H267.725L267.943 21.4763H268.039C269.072 19.5619 270.642 18.3364 272.369 18.3364C273.028 18.3364 273.499 18.4324 274 18.6504L273.499 20.9094C272.997 20.7524 272.652 20.6565 272.025 20.6565C270.738 20.6565 269.199 21.5984 268.165 24.1714V33.9618H265.592V18.7115V18.7158Z" fill="#1A1A18"></path><path d="M39.8942 23.9925C39.1616 33.2247 31.4513 40.4901 22.0316 40.4901C12.1235 40.4901 4.09495 32.4615 4.09495 22.5534C4.09495 12.6453 12.1235 4.62108 22.0316 4.62108C30.3349 4.62108 37.2994 10.2729 39.3404 17.9308L43.226 16.6138C40.6312 7.33796 32.136 0.526123 22.0316 0.526123C9.86452 0.526123 0 10.3906 0 22.5578C0 33.7219 8.31202 42.9235 19.0836 44.367L22.0316 49.4737L24.9797 44.367C35.2803 42.9846 43.3176 34.4981 43.9935 23.9925H39.8898H39.8942Z" fill="#0068B4"></path><path d="M44.011 23.6219C44.0284 23.2643 44.0589 22.9154 44.0589 22.5534C44.0589 20.6215 43.7842 18.755 43.3176 16.967L39.4319 18.2841C39.7677 19.6534 39.964 21.0794 39.964 22.5534C39.964 22.911 39.9291 23.2643 39.9116 23.6219H44.011Z" fill="#C5C6C6"></path><path d="M9.97791 18.9817L11.5043 20.1722L10.0695 22.9196C9.34993 24.1887 10.5841 25.4228 11.3691 25.8502C12.141 26.2732 13.3402 26.3256 14.461 26.3081L16.4801 23.0112L18.0065 23.8354L15.3594 18.9337L9.97791 18.9773V18.9817ZM10.2047 25.7107L13.4798 31.7593C14.1383 32.601 15.3768 32.7972 16.6633 32.7667H20.1172V27.0408L13.5714 26.9971C12.5552 27.0582 11.2251 26.8445 10.209 25.715L10.2047 25.7107ZM30.7972 14.564L29.0179 15.3185L27.3084 12.7324C26.5496 11.4895 24.8706 11.9692 24.1118 12.4489C23.3661 12.9199 22.7425 13.9447 22.2104 14.9347L24.1162 18.297L22.6553 19.2302L28.2242 19.2913L30.7928 14.564H30.7972ZM24.8052 11.4982L17.928 11.4285C16.8726 11.5985 16.1007 12.5841 15.5033 13.7223L13.8287 16.7401L18.835 19.5181L22.0491 13.8139C22.4895 12.8938 23.3181 11.834 24.8009 11.4939L24.8052 11.4982ZM25.1018 34.8338L25.3024 32.9106L28.3943 32.6708C29.8509 32.6054 30.2434 30.9089 30.191 30.0149C30.1387 29.134 29.5456 28.0917 28.9394 27.1498L25.0712 27.1847L24.9622 25.4534L22.2061 30.294L25.0974 34.8338H25.1018ZM30.6882 31.079L34.081 25.1001C34.443 24.0971 33.9545 22.9414 33.2481 21.8643L31.4165 18.9381L26.5583 21.9733L29.9904 27.551C30.5792 28.3796 31.1025 29.6225 30.6838 31.0834L30.6882 31.079Z" fill="#C5C6C6"></path></g><defs><clipPath id="clip0_953_1998"><rect width="274" height="48.9476" fill="white" transform="translate(0 0.526123)"></rect></clipPath></defs></svg> 